<svg width="40" height="40" viewBox="0 0 40 40" fill="none" xmlns="http://www.w3.org/2000/svg">
<g clip-path="url(#clip0_4821_25315)">
<g clip-path="url(#clip1_4821_25315)">
<path d="M40 40L-3.8147e-06 40L-3.17786e-07 -3.49691e-06L40 0L40 40Z" fill="url(#paint0_linear_4821_25315)"/>
<g clip-path="url(#clip2_4821_25315)">
<g filter="url(#filter0_f_4821_25315)">
<path d="M29.6331 16.6039C28.9015 16.6039 28.2068 16.7762 27.5797 17.0715C27.5797 16.8746 27.5797 16.6777 27.5797 16.5054C27.5858 13.0906 23.8232 11.4724 17.2695 11.4724C10.7157 11.4724 6.95312 13.0906 6.95312 16.5054C6.95312 20.3017 7.13142 30.4724 17.2695 30.4724C22.3662 30.4724 24.9483 27.9005 26.2517 24.861C27.1247 25.7224 28.3174 26.2516 29.6331 26.2516C32.289 26.2516 34.4531 24.0858 34.4531 21.4277C34.4531 18.7697 32.289 16.6039 29.6331 16.6039ZM29.6331 23.7904C28.3297 23.7904 27.2723 22.7321 27.2723 21.4277C27.2723 20.1233 28.3297 19.065 29.6331 19.065C30.9365 19.065 31.9939 20.1233 31.9939 21.4277C31.9939 22.7321 30.9365 23.7904 29.6331 23.7904Z" fill="url(#paint1_linear_4821_25315)" fill-opacity="0.2"/>
</g>
<path d="M29.6331 16.2705C28.9015 16.2705 28.2068 16.4428 27.5797 16.7381C27.5797 16.5412 27.5797 16.3443 27.5797 16.1721C27.5858 12.7572 23.8232 11.139 17.2695 11.139C10.7157 11.139 6.95312 12.7572 6.95312 16.1721C6.95312 19.9684 7.13142 30.139 17.2695 30.139C22.3662 30.139 24.9483 27.5671 26.2517 24.5276C27.1247 25.389 28.3174 25.9182 29.6331 25.9182C32.289 25.9182 34.4531 23.7524 34.4531 21.0943C34.4531 18.4363 32.289 16.2705 29.6331 16.2705ZM29.6331 23.457C28.3297 23.457 27.2723 22.3988 27.2723 21.0943C27.2723 19.7899 28.3297 18.7317 29.6331 18.7317C30.9365 18.7317 31.9939 19.7899 31.9939 21.0943C31.9939 22.3988 30.9365 23.457 29.6331 23.457Z" fill="url(#paint2_linear_4821_25315)"/>
<ellipse cx="17.207" cy="14.8828" rx="8.26172" ry="2.57812" fill="url(#paint3_radial_4821_25315)"/>
<path d="M17.2023 15.3057C19.8867 15.3057 22.233 15.8009 23.5033 16.5389C21.9899 17.0967 19.7287 17.4508 17.2023 17.4508C14.6759 17.4508 12.4147 17.0967 10.9014 16.539C12.1716 15.801 14.5179 15.3057 17.2023 15.3057Z" fill="#C2B2A3"/>
</g>
</g>
</g>
<defs>
<filter id="filter0_f_4821_25315" x="3.61979" y="8.13908" width="34.1667" height="25.6667" filterUnits="userSpaceOnUse" color-interpolation-filters="sRGB">
<feFlood flood-opacity="0" result="BackgroundImageFix"/>
<feBlend mode="normal" in="SourceGraphic" in2="BackgroundImageFix" result="shape"/>
<feGaussianBlur stdDeviation="1.66667" result="effect1_foregroundBlur_4821_25315"/>
</filter>
<linearGradient id="paint0_linear_4821_25315" x1="8.53515" y1="0.390626" x2="8.53515" y2="40" gradientUnits="userSpaceOnUse">
<stop stop-color="#313131"/>
<stop offset="1" stop-color="#141414"/>
</linearGradient>
<linearGradient id="paint1_linear_4821_25315" x1="19.9531" y1="29.8057" x2="18.2864" y2="23.9724" gradientUnits="userSpaceOnUse">
<stop/>
<stop offset="1" stop-color="#666666" stop-opacity="0"/>
</linearGradient>
<linearGradient id="paint2_linear_4821_25315" x1="20.7031" y1="11.139" x2="20.7031" y2="30.139" gradientUnits="userSpaceOnUse">
<stop offset="0.49929" stop-color="white"/>
<stop offset="1" stop-color="#E2E2E2"/>
</linearGradient>
<radialGradient id="paint3_radial_4821_25315" cx="0" cy="0" r="1" gradientUnits="userSpaceOnUse" gradientTransform="translate(17.207 17.4609) rotate(-90) scale(5.15625 11.0262)">
<stop offset="0.418269" stop-color="#EDEDED"/>
<stop offset="0.77391" stop-color="#E6E6E6"/>
<stop offset="1" stop-color="#DAD9D9"/>
</radialGradient>
<clipPath id="clip0_4821_25315">
<rect width="40" height="40" fill="white"/>
</clipPath>
<clipPath id="clip1_4821_25315">
<rect width="40" height="40" fill="white"/>
</clipPath>
<clipPath id="clip2_4821_25315">
<rect width="40" height="40" fill="white"/>
</clipPath>
</defs>
</svg>
